<?xml version="1.0" encoding="utf-8"?>
<!-- Generator: Adobe Illustrator 25.0.0, SVG Export Plug-In . SVG Version: 6.00 Build 0)  -->
<svg version="1.1" id="Layer_1" xmlns="http://www.w3.org/2000/svg" xmlns:xlink="http://www.w3.org/1999/xlink" x="0px" y="0px"
	 viewBox="0 0 685.13 259.57" style="enable-background:new 0 0 685.13 259.57;" xml:space="preserve">
<style type="text/css">
	.st0{fill:#085EA9;}
	.st1{fill:#113559;}
	.st2{fill:#A31C49;}
</style>
<g>
	<path class="st0" d="M77.2,223.89v-63.22h4.41v27.73h33.87v-27.73h4.41v63.22h-4.41v-31.66H81.62v31.66H77.2z"/>
	<path class="st0" d="M151.65,225.04c-2.94,0-5.71-0.54-8.3-1.63c-2.59-1.09-4.85-2.67-6.76-4.75c-1.92-2.08-3.44-4.61-4.56-7.58
		c-1.12-2.97-1.68-6.35-1.68-10.12c0-3.77,0.56-7.16,1.68-10.17c1.12-3.01,2.62-5.55,4.51-7.63c1.89-2.08,4.03-3.68,6.43-4.8
		c2.4-1.12,4.88-1.68,7.44-1.68c5.5,0,9.82,1.86,12.95,5.56c3.13,3.71,4.7,8.96,4.7,15.73c0,0.57,0,1.15,0,1.73
		c0,0.58-0.06,1.15-0.19,1.73h-33.19c0.06,2.88,0.51,5.55,1.34,8.01c0.83,2.46,2,4.57,3.5,6.33c1.5,1.76,3.31,3.13,5.42,4.13
		c2.11,0.99,4.48,1.49,7.1,1.49c2.49,0,4.75-0.37,6.76-1.1c2.01-0.74,3.89-1.74,5.61-3.02l1.73,3.26c-1.86,1.09-3.89,2.11-6.09,3.07
		C157.84,224.57,155.04,225.04,151.65,225.04z M134.67,197.99h29.36c0-5.95-1.21-10.38-3.65-13.29c-2.43-2.91-5.72-4.37-9.88-4.37
		c-1.98,0-3.87,0.4-5.66,1.2c-1.79,0.8-3.41,1.97-4.85,3.5c-1.44,1.53-2.62,3.39-3.55,5.56
		C135.52,192.78,134.93,195.24,134.67,197.99z"/>
	<path class="st0" d="M187.24,225.04c-1.86,0-3.58-0.26-5.18-0.77c-1.6-0.51-3.01-1.28-4.22-2.3c-1.22-1.02-2.17-2.33-2.88-3.93
		c-0.7-1.6-1.06-3.48-1.06-5.66c0-5.12,2.38-9,7.15-11.66c4.76-2.65,12.3-4.56,22.59-5.71c0-1.73-0.13-3.47-0.38-5.23
		c-0.26-1.76-0.8-3.33-1.63-4.7c-0.83-1.38-1.95-2.49-3.36-3.36c-1.41-0.86-3.26-1.3-5.56-1.3c-3.07,0-5.89,0.61-8.44,1.82
		c-2.56,1.22-4.64,2.4-6.24,3.55l-1.92-3.17c0.83-0.57,1.84-1.21,3.02-1.92c1.18-0.7,2.51-1.34,3.98-1.92
		c1.47-0.58,3.07-1.07,4.8-1.49c1.73-0.41,3.52-0.62,5.37-0.62c2.69,0,4.96,0.47,6.81,1.39c1.85,0.93,3.36,2.19,4.51,3.79
		c1.15,1.6,1.98,3.47,2.49,5.61c0.51,2.14,0.77,4.46,0.77,6.96v29.45h-3.65l-0.38-5.95h-0.29c-2.37,1.85-4.91,3.5-7.63,4.94
		C193.2,224.33,190.31,225.04,187.24,225.04z M188.01,221.4c2.69,0,5.24-0.64,7.67-1.92c2.43-1.28,5.08-3.13,7.96-5.56v-15.64
		c-4.73,0.57-8.73,1.28-11.99,2.11c-3.26,0.83-5.89,1.82-7.87,2.98c-1.98,1.15-3.41,2.46-4.27,3.93c-0.86,1.47-1.3,3.1-1.3,4.89
		c0,1.66,0.25,3.07,0.77,4.22c0.51,1.15,1.21,2.1,2.11,2.83c0.89,0.74,1.93,1.28,3.12,1.63C185.4,221.22,186.67,221.4,188.01,221.4z
		"/>
	<path class="st0" d="M222.35,223.89v-46.05H226l0.38,8.54h0.29c1.53-2.88,3.41-5.21,5.61-7s4.68-2.69,7.44-2.69
		c0.89,0,1.69,0.07,2.4,0.19c0.7,0.13,1.44,0.38,2.21,0.77l-0.96,3.84c-0.77-0.32-1.44-0.53-2.01-0.62
		c-0.58-0.1-1.31-0.14-2.21-0.14c-2.05,0-4.21,0.88-6.48,2.64s-4.3,4.81-6.09,9.16v31.37H222.35z"/>
	<path class="st0" d="M267.25,225.04c-2.24,0-4.09-0.34-5.56-1.01c-1.47-0.67-2.66-1.62-3.55-2.83c-0.9-1.21-1.52-2.69-1.87-4.41
		c-0.35-1.73-0.53-3.61-0.53-5.66v-29.65h-7.2v-3.26l7.29-0.38l0.58-13.33h3.65v13.33h13.34v3.65h-13.34v30.03
		c0,1.47,0.11,2.8,0.34,3.98c0.22,1.18,0.62,2.21,1.2,3.07c0.58,0.86,1.36,1.53,2.35,2.01c0.99,0.48,2.29,0.72,3.89,0.72
		c0.9,0,1.87-0.14,2.93-0.43c1.06-0.29,2-0.62,2.83-1.01l1.15,3.45c-1.34,0.51-2.69,0.93-4.03,1.25
		C269.36,224.88,268.21,225.04,267.25,225.04z"/>
	<path class="st1" d="M298.53,223.89v-62.55h22.55c3.33,0,6.44,0.32,9.36,0.96c2.91,0.64,5.45,1.71,7.63,3.21
		c2.17,1.5,3.9,3.5,5.18,6c1.28,2.49,1.92,5.6,1.92,9.31c0,4.61-1.01,8.4-3.02,11.37c-2.02,2.97-4.72,5.2-8.11,6.67l14.2,25.04
		h-15.83l-11.99-22.55h-7.77v22.55H298.53z M312.63,190.12h7.29c3.71,0,6.54-0.78,8.49-2.35c1.95-1.57,2.93-3.89,2.93-6.96
		c0-3.07-0.98-5.21-2.93-6.43c-1.95-1.21-4.78-1.82-8.49-1.82h-7.29V190.12z"/>
	<path class="st1" d="M374.61,225.04c-3.39,0-6.56-0.56-9.5-1.68c-2.94-1.12-5.5-2.75-7.67-4.89c-2.18-2.14-3.87-4.75-5.08-7.82
		c-1.22-3.07-1.82-6.59-1.82-10.55c0-3.84,0.64-7.31,1.92-10.41c1.28-3.1,2.96-5.72,5.04-7.87c2.08-2.14,4.46-3.79,7.15-4.94
		c2.69-1.15,5.47-1.73,8.35-1.73c3.39,0,6.35,0.57,8.87,1.73c2.53,1.15,4.64,2.75,6.33,4.8c1.69,2.05,2.96,4.46,3.79,7.24
		c0.83,2.78,1.25,5.81,1.25,9.07c0,1.28-0.07,2.49-0.19,3.65c-0.13,1.15-0.26,2.01-0.38,2.59h-28.49c0.64,3.45,2.06,6,4.27,7.63
		c2.21,1.63,4.91,2.45,8.11,2.45c3.39,0,6.81-1.06,10.26-3.17l4.7,8.54c-2.43,1.67-5.13,2.98-8.11,3.93
		C380.41,224.57,377.48,225.04,374.61,225.04z M364.05,194.92h17.17c0-2.69-0.61-4.86-1.82-6.52c-1.22-1.66-3.26-2.49-6.14-2.49
		c-2.24,0-4.21,0.74-5.9,2.21C365.67,189.58,364.56,191.85,364.05,194.92z"/>
	<path class="st1" d="M419.89,225.04c-3.33,0-6.41-0.56-9.26-1.68c-2.85-1.12-5.32-2.73-7.44-4.85s-3.77-4.72-4.99-7.82
		c-1.22-3.1-1.82-6.63-1.82-10.6c0-3.97,0.67-7.5,2.01-10.6c1.34-3.1,3.15-5.71,5.42-7.82c2.27-2.11,4.91-3.73,7.92-4.85
		c3.01-1.12,6.14-1.68,9.4-1.68c2.94,0,5.55,0.48,7.82,1.44c2.27,0.96,4.3,2.17,6.09,3.65l-6.62,9.11
		c-2.24-1.85-4.38-2.78-6.43-2.78c-3.45,0-6.17,1.22-8.15,3.65c-1.98,2.43-2.98,5.72-2.98,9.88c0,4.16,1.01,7.45,3.02,9.88
		c2.02,2.43,4.56,3.65,7.63,3.65c1.53,0,3.02-0.34,4.46-1.01c1.44-0.67,2.8-1.49,4.08-2.45l5.56,9.21c-2.37,2.05-4.93,3.5-7.67,4.36
		C425.19,224.61,422.51,225.04,419.89,225.04z"/>
	<path class="st1" d="M459.8,225.04c-3.01,0-5.92-0.56-8.73-1.68s-5.29-2.73-7.44-4.85s-3.85-4.72-5.13-7.82
		c-1.28-3.1-1.92-6.63-1.92-10.6c0-3.97,0.64-7.5,1.92-10.6c1.28-3.1,2.99-5.71,5.13-7.82c2.14-2.11,4.62-3.73,7.44-4.85
		c2.81-1.12,5.72-1.68,8.73-1.68c3.01,0,5.9,0.56,8.68,1.68c2.78,1.12,5.24,2.73,7.39,4.85c2.14,2.11,3.85,4.72,5.13,7.82
		c1.28,3.1,1.92,6.64,1.92,10.6c0,3.97-0.64,7.5-1.92,10.6c-1.28,3.1-2.99,5.71-5.13,7.82s-4.61,3.73-7.39,4.85
		C465.7,224.48,462.8,225.04,459.8,225.04z M459.8,213.63c2.88,0,5.05-1.21,6.52-3.65c1.47-2.43,2.21-5.72,2.21-9.88
		c0-4.16-0.74-7.45-2.21-9.88c-1.47-2.43-3.65-3.65-6.52-3.65c-2.94,0-5.13,1.22-6.57,3.65c-1.44,2.43-2.16,5.72-2.16,9.88
		c0,4.16,0.72,7.45,2.16,9.88C454.66,212.41,456.85,213.63,459.8,213.63z"/>
	<path class="st1" d="M500.86,223.89l-16.02-47.58h14.2l6.14,22.45c0.64,2.37,1.26,4.78,1.87,7.24c0.61,2.46,1.23,4.94,1.87,7.44
		h0.38c0.58-2.49,1.17-4.97,1.78-7.44c0.61-2.46,1.23-4.88,1.87-7.24l6.24-22.45h13.53l-15.54,47.58H500.86z"/>
	<path class="st1" d="M558.71,225.04c-3.39,0-6.56-0.56-9.5-1.68c-2.94-1.12-5.5-2.75-7.67-4.89c-2.18-2.14-3.87-4.75-5.08-7.82
		c-1.22-3.07-1.82-6.59-1.82-10.55c0-3.84,0.64-7.31,1.92-10.41c1.28-3.1,2.96-5.72,5.04-7.87c2.08-2.14,4.46-3.79,7.15-4.94
		c2.69-1.15,5.47-1.73,8.35-1.73c3.39,0,6.35,0.57,8.87,1.73c2.53,1.15,4.64,2.75,6.33,4.8c1.69,2.05,2.96,4.46,3.79,7.24
		c0.83,2.78,1.25,5.81,1.25,9.07c0,1.28-0.07,2.49-0.19,3.65c-0.13,1.15-0.26,2.01-0.38,2.59h-28.49c0.64,3.45,2.06,6,4.27,7.63
		c2.21,1.63,4.91,2.45,8.11,2.45c3.39,0,6.81-1.06,10.26-3.17l4.7,8.54c-2.43,1.67-5.13,2.98-8.11,3.93
		C564.51,224.57,561.59,225.04,558.71,225.04z M548.15,194.92h17.17c0-2.69-0.61-4.86-1.82-6.52c-1.22-1.66-3.26-2.49-6.14-2.49
		c-2.24,0-4.21,0.74-5.9,2.21C549.77,189.58,548.67,191.85,548.15,194.92z"/>
	<path class="st1" d="M585.18,223.89v-47.58h11.51l0.96,8.35h0.39c1.73-3.26,3.8-5.66,6.24-7.2c2.43-1.53,4.86-2.3,7.29-2.3
		c1.34,0,2.45,0.08,3.31,0.24c0.86,0.16,1.65,0.4,2.35,0.72l-2.3,12.18c-0.9-0.25-1.73-0.45-2.49-0.58
		c-0.77-0.13-1.66-0.19-2.69-0.19c-1.79,0-3.66,0.64-5.61,1.92c-1.95,1.28-3.57,3.55-4.85,6.81v27.63H585.18z"/>
	<path class="st1" d="M629.32,242.51c-1.47,0-2.72-0.08-3.74-0.24c-1.02-0.16-2.01-0.4-2.97-0.72l2.49-10.75
		c0.45,0.13,0.96,0.25,1.53,0.38c0.58,0.13,1.12,0.19,1.63,0.19c2.37,0,4.19-0.58,5.47-1.73c1.28-1.15,2.24-2.66,2.88-4.51
		l0.67-2.49l-18.32-46.34h14.2l6.81,20.43c0.7,2.18,1.34,4.38,1.92,6.62c0.58,2.24,1.18,4.54,1.82,6.91h0.38
		c0.51-2.24,1.04-4.49,1.58-6.76c0.54-2.27,1.1-4.52,1.68-6.76l5.76-20.43h13.53l-16.5,48.06c-1.15,3.01-2.35,5.64-3.6,7.92
		c-1.25,2.27-2.69,4.16-4.32,5.66c-1.63,1.5-3.49,2.64-5.57,3.41C634.57,242.12,632.13,242.51,629.32,242.51z"/>
</g>
<g>
	<g>
		<path class="st0" d="M112.65,101.89l-5.29-13.97H90.2l-5.29,13.97h-7.36l18.13-47.41h6.26l18.13,47.41H112.65z M104.97,81.57
			l-6.07-18.13h-0.13l-6.13,18.13H104.97z"/>
		<path class="st0" d="M130.2,54.47h12.39c13.49,0,14.91,9.8,14.91,13.13c0,5.25-2.65,7.56-4.26,8.97c2,1.15,7.1,4.16,7.1,11.53
			c0,4.87-2.71,13.78-15.87,13.78H130.2V54.47z M137.17,74.21h5.68c6.52,0,7.68-3.91,7.68-6.66c0-6.73-6.52-6.73-8.07-6.73h-5.29
			V74.21z M137.17,95.54h7.55c7.03,0,8.65-5,8.65-7.43c0-1.73-0.71-3.4-1.68-4.68c-2.13-2.82-5.36-2.88-7.81-2.88h-6.71V95.54z"/>
		<path class="st0" d="M172.15,101.89V54.47h6.97v47.41H172.15z"/>
		<path class="st0" d="M215.7,102.78c-14.26,0-24.84-11.6-24.84-24.6c0-12.88,10.26-24.6,24.84-24.6c14.2,0,24.84,11.21,24.84,24.73
			C240.54,91.25,229.9,102.78,215.7,102.78z M215.7,59.92c-12.33,0-17.87,10.7-17.87,18.26c0,7.75,5.61,18.26,17.87,18.26
			c12.33,0,17.87-10.64,17.87-18.07C233.58,69.98,227.58,59.92,215.7,59.92z"/>
		<path class="st0" d="M296.04,101.89V61.84h-0.19l-16.07,40.05h-4.19l-16.13-40.05h-0.13v40.05h-6.97V54.47h10.97l14.33,36.33
			l14.39-36.33h10.97v47.41H296.04z"/>
		<path class="st0" d="M319.72,101.89V54.47h25.75v6.34h-18.78v13.97h18.78v6.34h-18.78v14.42h18.78v6.34H319.72z"/>
		<path class="st0" d="M361.02,54.47h15.49c9.94,0,15.87,3.78,19.49,8.71c3.42,4.74,4.9,10.51,4.9,15.12c0,6.41-2.45,13.26-6,16.72
			c-5.48,5.38-11.94,6.86-18.65,6.86h-15.23V54.47z M367.99,95.54h8.32c8.39,0,17.62-4.17,17.62-17.24
			c0-7.18-4.45-17.49-17.49-17.49h-8.45V95.54z"/>
	</g>
	<g>
		<path class="st0" d="M28.77,46.95c-4.98,0-9.03,4.22-9.03,9.4v6.54c0,5.19,4.05,9.4,9.03,9.4h4.07c4.98,0,9.03-4.22,9.03-9.4
			v-6.54c0-5.19-4.05-9.4-9.03-9.4H28.77z M23.67,62.89v-6.54c0-3.02,2.29-5.48,5.1-5.48h4.07c2.81,0,5.1,2.46,5.1,5.48v6.54
			c0,3.02-2.29,5.48-5.1,5.48h-4.07C25.96,68.36,23.67,65.91,23.67,62.89z"/>
	</g>
	<g>
		<path class="st2" d="M55.91,48.45c-6,0-10.89,5.13-10.89,11.43v8.32c0,6.3,4.88,11.43,10.89,11.43h5.14
			c6,0,10.89-5.13,10.89-11.43v-8.32c0-6.3-4.88-11.43-10.89-11.43H55.91z M48.95,68.2v-8.32c0-4.14,3.12-7.5,6.96-7.5h5.14
			c3.84,0,6.96,3.36,6.96,7.5v8.32c0,4.14-3.12,7.5-6.96,7.5h-5.14C52.07,75.7,48.95,72.33,48.95,68.2z"/>
	</g>
	<g>
		<path class="st0" d="M25.71,19.75c-4.76,0-8.62,4-8.62,8.91v6.1c0,4.92,3.87,8.91,8.62,8.91h3.84c4.76,0,8.63-4,8.63-8.91v-6.1
			c0-4.91-3.87-8.91-8.63-8.91H25.71z M21.02,34.77v-6.1c0-2.75,2.11-4.98,4.7-4.98h3.84c2.59,0,4.7,2.24,4.7,4.98v6.1
			c0,2.75-2.11,4.99-4.7,4.99h-3.84C23.12,39.76,21.02,37.52,21.02,34.77z"/>
	</g>
	<g>
		<path class="st2" d="M50.07,21.33c-4.79,0-8.68,4.02-8.68,8.97v6.15c0,4.95,3.89,8.97,8.68,8.97h3.87c4.79,0,8.68-4.02,8.68-8.97
			v-6.15c0-4.94-3.89-8.97-8.68-8.97H50.07z M45.32,36.45v-6.15c0-2.78,2.13-5.04,4.75-5.04h3.87c2.62,0,4.75,2.26,4.75,5.04v6.15
			c0,2.78-2.13,5.04-4.75,5.04h-3.87C47.45,41.49,45.32,39.23,45.32,36.45z"/>
	</g>
	<g>
		<path class="st0" d="M401.54,49.77c2.22,0,3.99,1.81,3.99,4.06c0,2.29-1.77,4.08-4.01,4.08c-2.22,0-4.03-1.79-4.03-4.08
			c0-2.26,1.81-4.06,4.03-4.06H401.54z M401.53,50.4c-1.79,0-3.25,1.54-3.25,3.43c0,1.93,1.46,3.45,3.27,3.45
			c1.81,0.02,3.25-1.52,3.25-3.43c0-1.91-1.44-3.45-3.25-3.45H401.53z M400.77,56.2h-0.72v-4.53c0.38-0.05,0.74-0.11,1.28-0.11
			c0.69,0,1.14,0.14,1.41,0.34c0.27,0.2,0.42,0.51,0.42,0.94c0,0.6-0.4,0.96-0.88,1.1v0.04c0.4,0.07,0.67,0.43,0.76,1.1
			c0.11,0.7,0.22,0.98,0.29,1.12h-0.76c-0.11-0.14-0.22-0.56-0.31-1.16c-0.11-0.58-0.4-0.8-0.97-0.8h-0.51V56.2z M400.77,53.69h0.52
			c0.6,0,1.1-0.22,1.1-0.78c0-0.4-0.29-0.8-1.1-0.8c-0.24,0-0.4,0.02-0.52,0.04V53.69z"/>
	</g>
</g>
</svg>
